<?xml version="1.0"?><svg width="726" height="726" xmlns="http://www.w3.org/2000/svg">
 <title>Phone Green</title>
 <metadata id="metadata18081">image/svg+xmlPublic Domainclker.comMohamed Ibrahimmap symbolsmap symbols</metadata>
 <g>
  <title>Layer 1</title>
  <path fill="#007f3f" fill-rule="nonzero" id="path6908" d="m638.24469,724.291382c47.561951,0 86.210938,-38.648926 86.210938,-86.357056l0,-549.488655c0,-47.708912 -38.648987,-86.211781 -86.210938,-86.211781l-549.634773,0c-47.562027,0 -86.211757,38.502869 -86.211757,86.211781l0,549.488655c0,47.70813 38.649718,86.357056 86.211757,86.357056l549.634773,0z"/>
  <path fill="#ffffff" fill-rule="nonzero" id="path6910" d="m352.604797,22.175699c-29.150696,3.141191 -135.015686,51.653669 -138.156891,301.22814c-3.288116,263.018524 109.006195,318.39859 138.449127,317.814178l0,-173.665436c-24.255493,0 -29.150757,-26.447754 -34.70343,-80.951263c-3.580322,-36.0914 -4.749146,-80.585236 0,-125.006073c3.434265,-31.05072 9.132202,-61.444031 34.557251,-61.444031l-0.146057,-177.975445l0,0.000021l0,-0.000021l0,-0.00001l0,-0.000021l0,-0.00001l0,-0.000019l0,-0.000011z" transform="rotate(21.33622932434082 283.6370849609374,331.69912719726574) "/>
  <path fill="#ffffff" fill-rule="nonzero" id="path6912" d="m340.898621,673.510254c11.324524,0 19.287903,-9.132996 19.287903,-19.434082l0.146118,-0.146118c0,0 -0.146118,-135.235596 -0.146118,-135.381714c0,-10.740112 -8.693909,-19.141785 -19.287903,-19.141785l-49.243042,0l0,174.103699c0,0 49.096924,0.146057 49.096924,0l0.146118,0z" transform="rotate(20.88605499267578 325.9940795898429,586.4622802734376) "/>
  <path fill="#ffffff" fill-rule="nonzero" id="path6914" d="m500.898621,262.151123c11.324524,0 19.287903,-9.133026 19.287903,-19.434052l0.146118,0c0,0 -0.146118,-139.253448 -0.146118,-139.399498c0,-10.740196 -8.693909,-19.141853 -19.287903,-19.141853l-49.243042,0l0,177.975403l49.096924,0.146118l0.146118,-0.146118z" transform="rotate(21.137338638305664 485.9941406250002,173.23648071289057) "/>
 </g>
</svg>